<?xml version="1.0" encoding="UTF-8" standalone="no"?>
<svg
   xmlns:dc="http://purl.org/dc/elements/1.1/"
   xmlns:cc="http://creativecommons.org/ns#"
   xmlns:rdf="http://www.w3.org/1999/02/22-rdf-syntax-ns#"
   xmlns:svg="http://www.w3.org/2000/svg"
   xmlns="http://www.w3.org/2000/svg"
   xmlns:sodipodi="http://sodipodi.sourceforge.net/DTD/sodipodi-0.dtd"
   xmlns:inkscape="http://www.inkscape.org/namespaces/inkscape"
   width="256"
   height="182"
   preserveAspectRatio="xMidYMid meet"
   viewBox="0 0 256 182"
   style="-ms-transform: rotate(360deg); -webkit-transform: rotate(360deg); transform: rotate(360deg);"
   version="1.1"
   id="svg8"
   sodipodi:docname="akka.svg"
   inkscape:version="0.92.1 r15371">
  <metadata
     id="metadata14">
    <rdf:RDF>
      <cc:Work
         rdf:about="">
        <dc:format>image/svg+xml</dc:format>
        <dc:type
           rdf:resource="http://purl.org/dc/dcmitype/StillImage" />
      </cc:Work>
    </rdf:RDF>
  </metadata>
  <defs
     id="defs12" />
  <sodipodi:namedview
     pagecolor="#ffffff"
     bordercolor="#666666"
     borderopacity="1"
     objecttolerance="10"
     gridtolerance="10"
     guidetolerance="10"
     inkscape:pageopacity="0"
     inkscape:pageshadow="2"
     inkscape:window-width="1304"
     inkscape:window-height="793"
     id="namedview10"
     showgrid="false"
     inkscape:zoom="1.2967033"
     inkscape:cx="128"
     inkscape:cy="91"
     inkscape:window-x="661"
     inkscape:window-y="415"
     inkscape:window-maximized="0"
     inkscape:current-layer="svg8" />
  <path
     d="M216.358 174.771c38.778 31.001 63.622-61.57 1.836-78.636c-51.848-14.366-104.02 10.262-156.3 67.727c0 0 96.567-35.322 154.464 10.91z"
     fill="#0B5567"
     id="path2" />
  <path
     d="M62.758 163.105c37.158-38.562 98.943-81.552 156.516-65.674c13.394 3.78 22.9 11.558 29.057 20.847L193.89 8.425c-7.778-12.422-27.653-9.83-38.887-.324L11.126 128.648c-13.07 11.234-13.826 31.217-1.729 43.315c10.694 10.694 27.653 11.666 39.427 2.16l13.934-11.018z"
     fill="#15A9CE"
     id="path4" />
</svg>
