<?xml version="1.0" encoding="UTF-8" standalone="no"?>
<!-- Created with Inkscape (http://www.inkscape.org/) -->

<svg
   xmlns:dc="http://purl.org/dc/elements/1.1/"
   xmlns:cc="http://creativecommons.org/ns#"
   xmlns:rdf="http://www.w3.org/1999/02/22-rdf-syntax-ns#"
   xmlns:svg="http://www.w3.org/2000/svg"
   xmlns="http://www.w3.org/2000/svg"
   xmlns:xlink="http://www.w3.org/1999/xlink"
   xmlns:sodipodi="http://sodipodi.sourceforge.net/DTD/sodipodi-0.dtd"
   xmlns:inkscape="http://www.inkscape.org/namespaces/inkscape"
   width="500mm"
   height="500mm"
   viewBox="0 0 500 500"
   version="1.1"
   id="svg8"
   sodipodi:docname="drasyl_dark.svg"
   inkscape:version="0.92.4 (5da689c313, 2019-01-14)"
   inkscape:export-filename="C:\Users\Arne\Desktop\drasyl_dark.png"
   inkscape:export-xdpi="50.799999"
   inkscape:export-ydpi="50.799999"
   style="enable-background:new">
  <defs
     id="defs2">
    <linearGradient
       id="linearGradient883"
       inkscape:collect="always">
      <stop
         style="stop-color:#000000;stop-opacity:0;"
         offset="0"
         id="stop881" />
      <stop
         style="stop-color:#000000;stop-opacity:1;"
         offset="1"
         id="stop879" />
    </linearGradient>
    <linearGradient
       inkscape:collect="always"
       id="linearGradient866">
      <stop
         style="stop-color:#000000;stop-opacity:1;"
         offset="0"
         id="stop862" />
      <stop
         style="stop-color:#000000;stop-opacity:0;"
         offset="1"
         id="stop864" />
    </linearGradient>
    <inkscape:path-effect
       effect="bspline"
       id="path-effect835"
       is_visible="true"
       weight="33.333333"
       steps="2"
       helper_size="0"
       apply_no_weight="true"
       apply_with_weight="true"
       only_selected="false" />
    <linearGradient
       inkscape:collect="always"
       xlink:href="#linearGradient866"
       id="linearGradient880"
       x1="169.15515"
       y1="148.70152"
       x2="99.694176"
       y2="148.70152"
       gradientUnits="userSpaceOnUse"
       gradientTransform="translate(-14.919576,-16.550266)" />
    <filter
       inkscape:collect="always"
       style="color-interpolation-filters:sRGB"
       id="filter882">
      <feBlend
         inkscape:collect="always"
         mode="overlay"
         in2="BackgroundImage"
         id="feBlend884" />
    </filter>
    <filter
       inkscape:collect="always"
       style="color-interpolation-filters:sRGB"
       id="filter1567"
       x="-0.64141637"
       width="2.2828329"
       y="-0.56360775"
       height="2.1272154">
      <feGaussianBlur
         inkscape:collect="always"
         stdDeviation="89.825097"
         id="feGaussianBlur1569" />
    </filter>
    <radialGradient
       inkscape:collect="always"
       xlink:href="#linearGradient883"
       id="radialGradient1696"
       cx="231.14412"
       cy="228.54854"
       fx="231.14412"
       fy="228.54854"
       r="128.59544"
       gradientTransform="matrix(1.3674081,0,0,1.5300672,-64.098599,-204.10929)"
       gradientUnits="userSpaceOnUse" />
    <filter
       inkscape:collect="always"
       style="color-interpolation-filters:sRGB"
       id="filter1698">
      <feBlend
         inkscape:collect="always"
         mode="overlay"
         in2="BackgroundImage"
         id="feBlend1700" />
    </filter>
    <clipPath
       clipPathUnits="userSpaceOnUse"
       id="clipPath1759">
      <path
         style="display:inline;fill:#058587;fill-opacity:1;stroke:#000000;stroke-width:0;stroke-linecap:butt;stroke-linejoin:miter;stroke-miterlimit:4;stroke-dasharray:none;stroke-opacity:1"
         d="M 661.41798,0 C 636.22274,0 611.02644,-1.9653543e-4 570.07813,9.4492196 529.12986,18.898636 472.44473,37.793624 409.44923,78.740237 346.45389,119.68685 277.16442,182.67803 219.21289,255.11719 161.26136,327.55629 114.64805,409.44436 81.890624,488.18752 49.133387,566.93066 30.237146,642.51716 18.898435,705.50979 7.5596032,768.50235 3.780446,818.89728 1.8906218,853.54296 7.4087978e-4,888.1888 -3.6871556e-6,907.08451 -3.6871556e-6,929.13284 c 0,22.04832 -2.872440944e-4,47.24424 6.2988283871556,94.48826 6.2992473,47.244 18.8970703,116.5332 47.2441403,179.5273 28.347262,62.994 72.441525,119.6879 129.132815,167.5606 56.69129,47.8728 125.98319,86.9263 188.97852,108.9746 62.99554,22.0483 119.68705,27.0878 166.92967,29.6074 47.24285,2.5196 85.03771,2.5195 122.83401,2.5195 h 0.002 c 37.79629,0 75.58945,3e-4 122.834,-2.5195 47.24455,-2.5197 103.9389,-7.5584 166.92968,-29.6055 62.99094,-22.047 132.28094,-61.1036 188.97464,-108.9785 56.6934,-47.8748 100.7885,-104.566 129.1348,-167.5586 28.3465,-62.9926 40.945,-132.2841 47.2441,-179.5273 6.2989,-47.24323 6.2988,-72.44224 6.2988,-94.48826 0,-22.04606 -10e-5,-40.94484 -1.8906,-75.5918 -1.8904,-34.64697 -5.6693,-85.03782 -17.0078,-148.02932 -11.3386,-62.99157 -30.2362,-138.5839 -62.9923,-217.3242 C 1208.1892,409.44719 1161.5747,327.55903 1103.6211,255.11719 1045.6675,182.67528 976.38056,119.68623 913.38672,78.740237 850.39273,37.794229 793.70632,18.898987 752.75782,9.4492196 711.80932,-5.6314962e-4 686.6134,0 661.41798,0 Z"
         id="path1761"
         inkscape:connector-curvature="0"
         sodipodi:nodetypes="sscscccscccsssscccccsccsscss" />
    </clipPath>
  </defs>
  <sodipodi:namedview
     id="base"
     pagecolor="#ffffff"
     bordercolor="#666666"
     borderopacity="1.0"
     inkscape:pageopacity="0.0"
     inkscape:pageshadow="2"
     inkscape:zoom="0.49497475"
     inkscape:cx="586.44482"
     inkscape:cy="762.90587"
     inkscape:document-units="mm"
     inkscape:current-layer="layer7"
     showgrid="false"
     inkscape:window-width="2560"
     inkscape:window-height="1417"
     inkscape:window-x="-8"
     inkscape:window-y="-8"
     inkscape:window-maximized="1"
     inkscape:pagecheckerboard="true" />
  <metadata
     id="metadata5">
    <rdf:RDF>
      <cc:Work
         rdf:about="">
        <dc:format>image/svg+xml</dc:format>
        <dc:type
           rdf:resource="http://purl.org/dc/dcmitype/StillImage" />
        <dc:title />
      </cc:Work>
    </rdf:RDF>
  </metadata>
  <g
     inkscape:groupmode="layer"
     id="layer8"
     inkscape:label="bg">
    <g
       inkscape:groupmode="layer"
       id="layer6"
       inkscape:label="bg_rounded"
       style="display:none">
      <rect
         style="display:inline;fill:none;fill-opacity:1;stroke:#9bcdc0;stroke-width:210.52630615;stroke-linejoin:round;stroke-miterlimit:4;stroke-dasharray:none;stroke-opacity:1;enable-background:new"
         id="rect817-3"
         width="289.47369"
         height="289.47369"
         x="105.26315"
         y="105.26315" />
    </g>
    <g
       inkscape:groupmode="layer"
       id="layer7"
       inkscape:label="bg_square"
       style="display:inline">
      <rect
         style="opacity:1;fill:#9bcdc0;fill-opacity:1;stroke:none;stroke-width:42.33333206;stroke-linejoin:round;stroke-miterlimit:4;stroke-dasharray:none;stroke-opacity:1"
         id="rect896"
         width="500"
         height="500"
         x="0"
         y="0" />
    </g>
  </g>
  <g
     inkscape:groupmode="layer"
     id="layer4"
     inkscape:label="egg"
     style="display:inline"
     transform="translate(0,100)">
    <path
       style="fill:#058587;fill-opacity:1;stroke:#000000;stroke-width:0;stroke-linecap:butt;stroke-linejoin:miter;stroke-miterlimit:4;stroke-dasharray:none;stroke-opacity:1"
       d="m 250.00017,-50.00002 c -6.66624,0 -13.33276,-5e-5 -24.167,2.50011 -10.83423,2.50015 -25.83217,7.49945 -42.49973,18.33324 -16.66752,10.833796 -35.00035,27.5002122 -50.33336,46.666406 -15.33301,19.166178 -27.66612,40.832391 -36.333185,61.666519 -8.667019,20.834125 -13.666649,40.833055 -16.666683,57.499855 -3.000065,16.66678 -3.999968,30.00043 -4.499984,39.16711 -0.500031,9.16671 -0.500227,14.1662 -0.500227,19.99981 0,5.83362 -7.6e-5,12.50005 1.666564,25.00003 1.666676,12.49997 4.99985,30.83274 12.500013,47.49993 7.500212,16.66716 19.166822,31.66742 34.166392,44.33374 14.99957,12.66635 33.33305,22.99925 50.00056,28.83286 16.66757,5.83362 31.6672,7.16698 44.16681,7.83363 12.49967,0.66664 22.49956,0.66662 32.49983,0.66662 h 5.3e-4 c 10.00027,0 19.9997,8e-5 32.49982,-0.66662 12.50012,-0.66667 27.50051,-1.99983 44.16681,-7.83312 16.66636,-5.83327 34.99934,-16.167 49.99955,-28.8339 15.00013,-12.66687 26.66696,-27.66642 34.16692,-44.33321 7.50001,-16.66679 10.83336,-35.00017 12.5,-47.49993 1.66658,-12.49977 1.66655,-19.16701 1.66655,-25.00003 0,-5.83301 -2e-5,-10.83332 -0.50022,-20.00032 -0.50017,-9.16701 -1.5,-22.4996 -4.49998,-39.16609 -3,-16.66652 -7.99999,-36.666995 -16.66671,-57.500365 C 394.66672,58.332884 382.3333,36.666639 366.99975,17.499736 351.66619,-1.6671858 333.33401,-18.333038 316.6669,-29.16667 299.99974,-40.0003 285.00146,-44.99966 274.16717,-47.49991 c -10.83429,-2.50026 -17.50071,-2.50011 -24.167,-2.50011 z"
       id="path833-5"
       inkscape:connector-curvature="0"
       sodipodi:nodetypes="sscscccscccsssscccccsccsscss" />
  </g>
  <g
     inkscape:groupmode="layer"
     id="layer2"
     inkscape:label="egg_shade"
     style="display:inline;filter:url(#filter882)"
     transform="translate(0,100)">
    <path
       style="opacity:0.35;fill:url(#linearGradient880);fill-opacity:1;stroke:#000000;stroke-width:0;stroke-linecap:butt;stroke-linejoin:miter;stroke-miterlimit:4;stroke-dasharray:none;stroke-opacity:1"
       d="m 134.31838,214.90261 c 1.98933,0 3.97854,0 6.46516,-0.22068 2.48662,-0.22067 5.47058,-0.66202 8.78597,-2.59287 3.3154,-1.93085 6.96243,-5.35127 9.94638,-9.54408 2.98394,-4.19281 5.30471,-9.15778 6.79666,-14.67458 1.49196,-5.5168 2.15505,-11.5853 2.48659,-15.72279 0.33153,-4.13749 0.33153,-6.34435 0.33153,-8.27511 0,-1.93076 0,-3.58582 -0.0995,-6.62015 -0.0995,-3.03433 -0.29839,-7.44761 -0.89517,-12.96431 -0.59678,-5.51671 -1.59142,-12.13686 -3.31547,-19.03282 -1.72405,-6.89596 -4.17745,-14.06761 -7.22772,-20.41196 -3.05027,-6.344356 -6.69711,-11.860852 -10.01266,-15.446842 -3.31556,-3.585991 -6.29908,-5.240799 -8.45432,-6.068396 -2.15524,-0.827598 -3.48137,-0.827598 -4.80748,-0.827598 -1.3261,0 -2.65225,0 -4.80748,0.827566 -2.15523,0.827566 -5.13873,2.482367 -8.45437,6.068411 -3.31563,3.586044 -6.96255,9.102674 -10.01271,15.446789 -3.05016,6.34411 -5.50357,13.51579 -7.22769,20.412 -1.72411,6.89621 -2.7187,13.51602 -3.31549,19.03282 -0.596796,5.5168 -0.795722,9.93017 -0.895189,12.96439 -0.09947,3.03423 -0.09947,4.68917 -0.09947,6.62013 0,1.93096 0,4.13756 0.331541,8.27512 0.331544,4.13756 0.994614,10.20584 2.486604,15.72277 1.492,5.51692 3.81282,10.48202 6.79665,14.67464 2.98383,4.19263 6.63079,7.61298 9.94642,9.54394 3.31564,1.93096 6.29952,2.37229 8.78604,2.59295 2.48653,0.22066 4.47581,0.22066 6.46514,0.22066 z"
       id="path833"
       inkscape:connector-curvature="0"
       inkscape:original-d="m 134.31833,214.90261 c 1.98938,-9e-5 3.97859,-9e-5 5.96783,0 2.98399,-0.44143 5.96795,-0.88278 8.95175,-1.32402 3.64698,-3.4204 7.29401,-6.84082 10.94102,-10.26117 2.32091,-4.96524 4.64168,-9.93021 6.96247,-14.89525 0.66315,-6.06857 1.32624,-12.13707 1.98927,-18.2053 5e-5,-2.20675 5e-5,-4.41361 0,-6.62011 5e-5,-1.65502 5e-5,-3.31008 0,-4.96508 -0.19888,-4.41366 -0.3978,-8.82694 -0.59678,-13.24022 -0.99458,-6.62014 -1.98922,-13.24029 -2.98391,-19.86033 -2.4534,-7.17189 -4.9068,-14.34354 -7.36033,-21.51535 -3.64701,-5.516926 -7.29384,-11.033423 -10.94102,-16.550274 -2.98396,-1.655168 -5.96748,-3.309977 -8.95175,-4.965082 -1.32626,-8.8e-5 -2.65239,-8.8e-5 -3.97855,0 -1.32605,-8.8e-5 -2.6522,-8.8e-5 -3.97855,0 -2.98413,1.655088 -5.96764,3.309887 -8.95175,4.965082 -3.64713,5.516937 -7.29405,11.033568 -10.94102,16.550274 -2.45333,7.17153 -4.90674,14.34321 -7.36033,21.51535 -0.99462,6.62028 -1.98921,13.24009 -2.98391,19.86033 -0.198877,4.41335 -0.397804,8.82672 -0.596785,13.24022 5.3e-5,1.65495 5.3e-5,3.30989 0,4.96508 5.3e-5,2.20673 5.3e-5,4.41333 0,6.62011 0.663145,6.06833 1.326215,12.13661 1.989275,18.2053 2.32094,4.96514 4.64177,9.93023 6.96247,14.89525 3.64695,3.4202 7.29391,6.84054 10.94102,10.26117 2.9841,0.44127 5.96798,0.88261 8.95175,1.32402 1.98927,-9e-5 3.97855,-9e-5 5.96783,0 z"
       transform="matrix(5.0269524,0,0,3.0210982,-425.21167,-299.24189)"
       sodipodi:nodetypes="ccccccccccccccccccccccccccc"
       inkscape:path-effect="#path-effect835" />
  </g>
  <g
     inkscape:groupmode="layer"
     id="layer1"
     inkscape:label="glare"
     style="display:inline"
     transform="translate(0,100)">
    <path
       style="display:inline;fill:#178689;fill-opacity:1;stroke:none;stroke-width:0.99999994px;stroke-linecap:butt;stroke-linejoin:miter;stroke-opacity:1;filter:url(#filter1567)"
       d="m 476.66211,274.98242 c -16.3914,0.12366 -34.2407,3.00619 -53.48633,8.2793 -38.49118,10.54622 -82.56846,30.65523 -116.58789,71.59961 -34.0194,40.94435 -57.98081,102.72481 -62.82422,155.12695 -4.84341,52.40214 9.43181,95.42244 42.00195,121.45703 32.57008,26.0346 83.4316,35.08075 133.99024,15.36524 50.55861,-19.71548 100.813,-68.19159 129.08789,-123.64258 28.27482,-55.45099 34.57096,-117.87709 27.34766,-161.10938 -7.22334,-43.23231 -27.96869,-67.27378 -54.79297,-78.80078 -13.41213,-5.76348 -28.34493,-8.39904 -44.73633,-8.27539 z"
       transform="matrix(0.26458333,0,0,0.26458333,75.000001,-50.00002)"
       id="path1059"
       inkscape:connector-curvature="0"
       clip-path="url(#clipPath1759)" />
  </g>
  <g
     inkscape:groupmode="layer"
     id="layer3"
     inkscape:label="fg"
     style="display:inline"
     transform="translate(0,100)">
    <path
       style="fill:#ffd1a5;fill-opacity:1;stroke:none;stroke-width:0;stroke-linecap:butt;stroke-linejoin:miter;stroke-miterlimit:4;stroke-dasharray:none;stroke-opacity:1"
       d="m 313.85053,-6.1272458 c -2.8813,-0.02574 -5.79111,0.278032 -8.35607,0.8816 -3.73089,0.877916 -6.74618,2.393884 -9.18291,4.82761104 -2.43672,2.43372696 -4.29741,5.78688496 -5.63221,9.49967896 -1.3348,3.7127978 -2.14341,7.7849548 -2.1854,12.2845218 -0.042,4.499568 0.68263,9.426001 1.6676,14.059091 0.98497,4.633089 2.23018,8.972041 3.83388,13.071551 1.60369,4.099512 3.56611,7.958902 5.27874,10.998814 1.71263,3.039919 3.17535,5.259943 5.39761,8.136453 2.22226,2.876521 5.20367,6.408942 9.35653,9.897071 4.15286,3.488121 9.47649,6.931525 14.97376,9.002034 5.49728,2.07051 11.16695,2.768166 16.53233,1.945617 5.36535,-0.82255 10.42485,-3.165129 13.89475,-6.42338 3.46991,-3.258259 5.34975,-7.431201 6.52053,-12.198223 1.17078,-4.766997 1.63248,-10.126914 1.19787,-15.877582 -0.4346,-5.750668 -1.7654,-11.89233 -4.08813,-17.932757 -2.32272,-6.040427 -5.63684,-11.979881 -9.53069,-17.330208 -3.89382,-5.350325 -8.36774,-10.1113638 -12.54858,-13.6306898 -4.18085,-3.519334 -8.06895,-5.79660596 -11.82666,-7.538559 -3.75772,-1.741953 -7.38512,-2.948493 -11.4267,-3.43028 -1.26299,-0.150561 -2.56656,-0.230659 -3.87625,-0.242364 z M 152.61335,120.04645 c -0.82895,-0.005 -1.67029,0.023 -2.52439,0.0842 -6.83282,0.49018 -14.51164,3.12016 -20.49074,7.43313 -5.9791,4.31296 -10.25654,10.30723 -13.16406,15.9949 -2.90751,5.68765 -4.44311,11.06508 -4.92476,17.18344 -0.48165,6.11837 0.0909,12.97569 1.45831,19.30425 1.36739,6.32856 3.52937,12.12808 7.11274,17.36586 3.58337,5.2378 8.58793,9.91374 14.65234,13.37025 6.06441,3.45651 13.18872,5.69342 20.15277,6.11331 6.96406,0.4199 13.76781,-0.97681 19.87631,-3.96512 6.10849,-2.98831 11.52083,-7.56833 14.94017,-13.49375 3.41934,-5.92543 4.84617,-13.19742 5.05809,-20.42821 0.21192,-7.23079 -0.79044,-14.41915 -2.47375,-21.14652 -1.68331,-6.72736 -4.04716,-12.9923 -8.05946,-18.7358 -4.0123,-5.74351 -9.67275,-10.96445 -15.49621,-14.40016 -5.09553,-3.00623 -10.31467,-4.64543 -16.11736,-4.67981 z m 166.98102,46.62609 c -1.44308,0.0167 -2.88996,0.12436 -4.33565,0.32866 -11.56552,1.63438 -23.05171,9.43522 -31.56552,19.99 -8.51381,10.55477 -14.0547,23.86337 -17.21962,36.07325 -3.16492,12.20986 -3.95338,23.32016 -2.87217,32.99436 1.08121,9.6742 4.03191,17.91049 9.47332,25.18865 5.44141,7.27816 13.37234,13.59683 22.6751,16.24809 9.30276,2.65128 19.97724,1.63526 30.04003,-2.81789 10.06279,-4.4532 19.51162,-12.34202 26.53895,-20.86488 7.02731,-8.52287 11.63061,-17.67663 14.15468,-28.50679 2.52407,-10.83017 2.96892,-23.33628 -0.10594,-35.42834 -3.07483,-12.09206 -9.66938,-23.76982 -18.78901,-31.87454 -7.9797,-7.0916 -17.89259,-11.4473 -27.99417,-11.33057 z"
       id="path1435"
       inkscape:connector-curvature="0" />
  </g>
  <g
     inkscape:groupmode="layer"
     id="layer9"
     inkscape:label="fg_shade"
     style="display:inline;filter:url(#filter1698)"
     transform="translate(0,100)">
    <path
       inkscape:connector-curvature="0"
       style="display:inline;fill:url(#radialGradient1696);fill-opacity:1;stroke:none;stroke-width:0;stroke-linecap:butt;stroke-linejoin:miter;stroke-miterlimit:4;stroke-dasharray:none;stroke-opacity:1"
       d="m 313.85053,-6.1272458 c -2.8813,-0.02574 -5.79111,0.278032 -8.35608,0.8816 -3.73088,0.877916 -6.74617,2.393884 -9.1829,4.82761104 -2.43672,2.43372796 -4.29741,5.78688496 -5.63221,9.49967896 -1.3348,3.7127978 -2.14341,7.7849548 -2.1854,12.2845228 -0.042,4.499568 0.68263,9.426002 1.6676,14.059092 0.98497,4.63309 2.23017,8.97204 3.83387,13.07155 1.60369,4.099511 3.56612,7.958901 5.27875,10.998811 1.71263,3.03992 3.17535,5.25995 5.3976,8.13646 2.22226,2.87652 5.20368,6.40894 9.35654,9.89707 4.15286,3.48812 9.47649,6.93152 14.97376,9.00203 5.49728,2.07051 11.16695,2.76817 16.53233,1.94562 5.36535,-0.82255 10.42485,-3.16513 13.89475,-6.42338 3.46991,-3.25826 5.34975,-7.4312 6.52053,-12.19822 1.17078,-4.767 1.63248,-10.12692 1.19787,-15.87759 -0.4346,-5.750661 -1.7654,-11.892331 -4.08813,-17.932751 -2.32272,-6.04043 -5.63684,-11.979884 -9.53069,-17.330212 -3.89382,-5.350325 -8.36774,-10.1113638 -12.54858,-13.6306898 -4.18085,-3.519334 -8.06895,-5.79660496 -11.82666,-7.538559 -3.75773,-1.741953 -7.38512,-2.948493 -11.4267,-3.43028 -1.26299,-0.150561 -2.56656,-0.230659 -3.87625,-0.242364 z M 152.61336,120.04645 c -0.82896,-0.005 -1.6703,0.023 -2.5244,0.0842 -6.83281,0.49018 -14.51163,3.12016 -20.49074,7.43313 -5.9791,4.31296 -10.25653,10.30723 -13.16405,15.9949 -2.90752,5.68765 -4.44311,11.06508 -4.92477,17.18344 -0.48165,6.11837 0.0909,12.97569 1.45831,19.30425 1.3674,6.32856 3.52938,12.12807 7.11275,17.36586 3.58337,5.2378 8.58792,9.91374 14.65233,13.37025 6.06442,3.45651 13.18872,5.69342 20.15278,6.11331 6.96406,0.41989 13.76781,-0.97681 19.87631,-3.96512 6.10848,-2.98831 11.52082,-7.56833 14.94016,-13.49375 3.41934,-5.92543 4.84617,-13.19742 5.05809,-20.42821 0.21192,-7.23079 -0.79044,-14.41915 -2.47375,-21.14652 -1.68331,-6.72736 -4.04716,-12.9923 -8.05946,-18.7358 -4.0123,-5.74351 -9.67273,-10.96445 -15.4962,-14.40016 -5.09553,-3.00624 -10.31468,-4.64544 -16.11736,-4.67982 z m 166.98101,46.6261 c -1.44308,0.0167 -2.88996,0.12436 -4.33566,0.32866 -11.56551,1.63438 -23.0517,9.43521 -31.56551,19.98999 -8.51381,10.55478 -14.0547,23.86338 -17.21962,36.07326 -3.16492,12.20986 -3.95339,23.32016 -2.87218,32.99436 1.08121,9.67419 4.03192,17.91048 9.47333,25.18864 5.44141,7.27816 13.37234,13.59683 22.6751,16.24809 9.30276,2.65128 19.97724,1.63525 30.04003,-2.81789 10.06279,-4.45321 19.51162,-12.34202 26.53895,-20.86489 7.02731,-8.52286 11.63061,-17.67661 14.15468,-28.50677 2.52407,-10.83017 2.96892,-23.33628 -0.10594,-35.42834 -3.07483,-12.09206 -9.66938,-23.76983 -18.78901,-31.87454 -7.9797,-7.09161 -17.89259,-11.4473 -27.99417,-11.33057 z"
       id="path1435-1" />
  </g>
</svg>
