<?xml version="1.0" standalone="no"?>
<!DOCTYPE svg PUBLIC "-//W3C//DTD SVG 20010904//EN"
 "http://www.w3.org/TR/2001/REC-SVG-20010904/DTD/svg10.dtd">
<svg version="1.0" xmlns="http://www.w3.org/2000/svg"
 width="1512.000000pt" height="1512.000000pt" viewBox="0 0 1512.000000 1512.000000"
 preserveAspectRatio="xMidYMid meet">
<metadata>
Created by potrace 1.11, written by Peter Selinger 2001-2013
</metadata>
<g transform="translate(0.000000,1512.000000) scale(0.100000,-0.100000)"
fill="#000000" stroke="none">
<path d="M7167 15110 c-706 -63 -1493 -356 -2173 -810 -372 -248 -737 -547
-1093 -895 -491 -480 -872 -941 -1246 -1505 -802 -1211 -1298 -2502 -1549
-4030 -149 -905 -198 -2037 -120 -2760 92 -855 291 -1615 571 -2174 437 -874
1191 -1634 2159 -2177 697 -390 1348 -608 2059 -688 477 -54 793 -66 1795 -66
995 0 1304 11 1785 66 682 76 1309 279 1961 634 1026 559 1801 1323 2251 2219
278 553 468 1257 567 2096 36 307 46 490 46 860 0 1547 -266 2996 -785 4276
-647 1596 -1692 2981 -2980 3948 -715 537 -1517 881 -2315 992 -134 18 -773
28 -933 14z m3085 -1684 c316 -72 629 -258 913 -542 565 -565 879 -1325 825
-1996 -42 -523 -229 -811 -614 -947 -141 -50 -240 -64 -411 -58 -216 6 -361
45 -576 153 -643 322 -1139 1035 -1308 1883 -44 221 -55 321 -54 496 0 232 42
415 137 605 130 262 319 390 636 429 122 16 329 5 452 -23z m-6101 -4769 c241
-63 465 -196 688 -412 277 -268 434 -552 542 -979 129 -510 126 -1005 -7
-1378 -149 -416 -529 -724 -1024 -829 -154 -33 -419 -33 -579 -1 -557 112
-1013 454 -1237 926 -93 196 -169 488 -195 750 -17 174 -7 492 21 621 94 441
363 856 701 1081 171 114 405 205 614 239 136 22 353 14 476 -18z m6308 -1752
c445 -85 859 -382 1154 -827 212 -319 338 -651 404 -1063 28 -174 25 -621 -5
-814 -78 -495 -242 -881 -543 -1271 -87 -114 -370 -400 -489 -494 -419 -333
-848 -500 -1285 -499 -250 0 -447 47 -664 158 -157 80 -279 171 -421 314 -303
305 -462 644 -526 1121 -23 168 -22 515 0 705 112 925 510 1769 1058 2240 295
254 617 408 938 449 67 8 295 -3 379 -19z"/>
</g>
</svg>
